PathFileType	4	(X/Y/Z)	Walk1.trc
DataRate	CameraRate	NumFrames	NumMarkers	Units	OrigDataRate	OrigDataStartFrame	OrigNumFrames
200.000000	200.000000	6	61	mm	200.000000	804	925
Frame#	Times		RCAR		LTH3		RTH2		LBHD		RWRU		LWRU		LUA1		RTH3		LElbow		RFA1		LFA1		LCAR		LElbowM		C7		RTB3		RToe		RPSI		RTB2		RTB1		RMT5		LTH2		RElbow		RLFC		RBHD		RMT1		RTB4		RMMAL		LWRR		T10		RLMAL		LPSI		RBack		RCAL		LLFC		STRN		LASI		LTB3		RUA1		LACR1		RASI		RElbowM		LMMAL		RFHD		LTB1		LTB2		LMFC		LCAL		RTH1		LTB4		RMFC		LFHD		LLMAL		LMT5		RACR1		RTH4		LTH4		CLAV		RWRR		LToe		LMT1		LTH1
			X1	Y1	Z1	X2	Y2	Z2	X3	Y3	Z3	X4	Y4	Z4	X5	Y5	Z5	X6	Y6	Z6	X7	Y7	Z7	X8	Y8	Z8	X9	Y9	Z9	X10	Y10	Z10	X11	Y11	Z11	X12	Y12	Z12	X13	Y13	Z13	X14	Y14	Z14	X15	Y15	Z15	X16	Y16	Z16	X17	Y17	Z17	X18	Y18	Z18	X19	Y19	Z19	X20	Y20	Z20	X21	Y21	Z21	X22	Y22	Z22	X23	Y23	Z23	X24	Y24	Z24	X25	Y25	Z25	X26	Y26	Z26	X27	Y27	Z27	X28	Y28	Z28	X29	Y29	Z29	X30	Y30	Z30	X31	Y31	Z31	X32	Y32	Z32	X33	Y33	Z33	X34	Y34	Z34	X35	Y35	Z35	X36	Y36	Z36	X37	Y37	Z37	X38	Y38	Z38	X39	Y39	Z39	X40	Y40	Z40	X41	Y41	Z41	X42	Y42	Z42	X43	Y43	Z43	X44	Y44	Z44	X45	Y45	Z45	X46	Y46	Z46	X47	Y47	Z47	X48	Y48	Z48	X49	Y49	Z49	X50	Y50	Z50	X51	Y51	Z51	X52	Y52	Z52	X53	Y53	Z53	X54	Y54	Z54	X55	Y55	Z55	X56	Y56	Z56	X57	Y57	Z57	X58	Y58	Z58	X59	Y59	Z59	X60	Y60	Z60	X61	Y61	Z61

804	4.02	671.02	875.73	276.38	521.65	621.85	-154.98	459.41	691.02	168.76	405.5	1635.7	-70.822	604.85	883.93	292.95	337.77	848.56	-231.44	357.58	1285	-246.33	369.77	613.01	190.76	307.75	1133.8	-253.31	541.47	1003.7	314.9	314.18	981.65	-251.27	404.67	802.83	-243.92	283.79	1133.3	-179.02	383.85	1510.9	4.8356	291.43	185.15	95.543	412.95	30.18	123.49	268.97	1026.1	73.841	298.67	271.59	167.32	353.23	360.88	110.99	305.46	25.724	175.25	555.36	733.68	-140.5	475.9	1143.7	311.81	333.58	496.55	183.36	423.57	1644.9	69.889	357.72	38.188	97.437	323.17	272.62	101.88	253.57	91.804	55.367	413.27	860.32	-196.66	270.76	1292.4	22.07	217.71	74.403	135.59	262.34	1018.5	-3.9899	318.02	1427.8	149.27	159	41.002	86.059	539.35	525.01	-146.97	548.1	1241.6	-1.998	468.71	1029.3	-121.1	630.01	214.47	-87.439	477.24	1298.2	262.49	435.64	1456.5	-166.46	493.92	1038.2	161.53	427.56	1119.9	249.15	634.48	103.59	-51.796	596.41	1679.3	24.544	613.74	399.61	-80.818	592.55	311	-153.34	552.88	527.91	-18.151	562.8	23.862	-82.404	414.7	797.9	209.56	621.75	310.04	-82.963	338.52	510.42	51.401	587.64	1675.6	-51.724	605.85	77.916	-131.08	714.57	44.299	-161.81	472.26	1462.6	157.38	395.21	703.55	203.1	493.09	709.56	-167.21	511.2	1416.7	-2.5963	638.74	908.77	227.02	799.66	80.104	-105.06	756.86	65.503	-84.911	466.02	798.75	-174.15
805	4.025	678.73	876.55	274.99	525.58	620.27	-155.35	462.98	690.23	168.74	410.88	1634.7	-71.467	612.49	884.14	291.53	341.09	847.78	-231.33	362.74	1284.2	-246.74	372.79	612.75	190.52	312.4	1133.1	-253.51	548.25	1003.3	313.94	318.13	980.97	-251.31	407.74	801.7	-243.73	288.43	1132.8	-179.21	389.27	1510.1	4.2055	292.13	185.12	95.471	412.95	30.174	123.54	274.24	1025.4	73.222	299.78	271.58	167.24	354.89	360.56	110.92	305.42	25.697	175.22	559.58	731.9	-140.09	481.75	1143	311.28	335.92	496.44	183.2	428.88	1644.1	69.25	357.68	38.148	97.494	324.33	272.44	101.82	253.8	91.968	55.342	416.66	859.24	-196.56	276.03	1291.7	21.361	217.84	74.779	135.58	267.77	1017.7	-4.5925	323.3	1427.1	148.62	159.02	41.576	86.054	543.85	523.82	-146.84	553.53	1240.7	-2.2981	474.32	1028.4	-121.33	640.89	214.98	-87.365	482.71	1297.6	261.97	441.27	1455.6	-167.03	499.74	1037.7	160.78	433.53	1119.1	248.56	647.42	104.05	-52.005	601.72	1678.6	23.963	620.41	399.81	-80.25	601.99	310.92	-153.33	555.77	525.96	-17.38	577.74	22.848	-83.79	418.79	797.35	209.32	630.46	310.4	-82.628	341.11	510.25	51.221	592.98	1674.8	-52.31	620.39	77.963	-131.76	730.37	46.51	-161.26	477.52	1461.8	156.83	398.72	703.11	202.73	497.44	708.14	-167.51	516.67	1415.9	-3.0516	646.23	909.51	225.72	814	83.966	-103.12	771.15	68.397	-83.698	470.78	797.45	-174.33
806	4.03	686.35	877.35	273.59	529.51	618.66	-155.77	466.6	689.44	168.71	416.27	1633.8	-72.141	620.03	884.32	290.09	344.51	846.99	-231.27	367.97	1283.3	-247.2	375.89	612.48	190.27	317.13	1132.4	-253.76	554.94	1003	312.97	322.16	980.27	-251.39	410.91	800.55	-243.56	293.13	1132.3	-179.46	394.71	1509.3	3.5437	292.87	185.1	95.39	412.96	30.164	123.58	279.53	1024.6	72.549	300.96	271.58	167.15	356.62	360.23	110.84	305.38	25.668	175.19	563.82	730.08	-139.73	487.53	1142.3	310.74	338.36	496.32	183.02	434.19	1643.2	68.583	357.64	38.11	97.553	325.56	272.26	101.76	254.05	92.167	55.316	420.13	858.13	-196.49	281.31	1290.9	20.612	217.98	75.19	135.58	273.22	1016.9	-5.2433	328.58	1426.4	147.94	159.04	42.203	86.05	548.42	522.65	-146.73	558.97	1239.9	-2.6158	479.95	1027.5	-121.59	651.36	215.51	-87.246	488.16	1296.9	261.43	446.92	1454.7	-167.63	505.57	1037.2	160.01	439.45	1118.2	247.94	659.79	104.58	-52.132	607.03	1677.9	23.356	626.98	399.99	-79.706	611.14	310.88	-153.27	558.81	524.07	-16.644	591.98	22.02	-85.029	422.92	796.8	209.04	638.91	310.75	-82.283	343.83	510.06	51.028	598.32	1674	-52.923	634.26	78.136	-132.33	745.37	48.706	-160.65	482.79	1461.1	156.25	402.3	702.68	202.36	501.8	706.69	-167.85	522.14	1415	-3.5303	653.63	910.22	224.41	827.61	87.679	-101.22	784.73	71.221	-82.506	475.55	796.12	-174.52
807	4.035	693.87	878.11	272.19	533.47	617.04	-156.25	470.3	688.66	168.68	421.66	1632.8	-72.844	627.49	884.48	288.65	348.01	846.17	-231.25	373.25	1282.5	-247.69	379.08	612.21	190	321.95	1131.7	-254.05	561.56	1002.6	311.98	326.29	979.53	-251.53	414.18	799.38	-243.42	297.89	1131.8	-179.77	400.14	1508.5	2.849	293.65	185.1	95.3	412.96	30.147	123.62	284.84	1023.8	71.82	302.2	271.6	167.06	358.44	359.89	110.75	305.34	25.639	175.14	568.09	728.25	-139.44	493.27	1141.6	310.17	340.9	496.2	182.83	439.51	1642.4	67.889	357.62	38.076	97.615	326.84	272.09	101.68	254.32	92.4	55.29	423.69	857	-196.45	286.6	1290.1	19.822	218.13	75.637	135.57	278.69	1016	-5.9428	333.86	1425.6	147.23	159.06	42.886	86.048	553.05	521.5	-146.64	564.43	1239	-2.9512	485.62	1026.6	-121.88	661.39	216.04	-87.081	493.59	1296.2	260.86	452.58	1453.8	-168.26	511.42	1036.7	159.22	445.32	1117.4	247.3	671.57	105.15	-52.173	612.34	1677.2	22.72	633.47	400.13	-79.191	619.97	310.85	-153.18	562.01	522.27	-15.956	605.46	21.348	-86.094	427.09	796.24	208.74	647.12	311.08	-81.933	346.68	509.84	50.824	603.67	1673.2	-53.563	647.41	78.389	-132.75	759.5	50.816	-160.01	488.06	1460.3	155.65	405.95	702.25	201.99	506.19	705.22	-168.23	527.62	1414.2	-4.0335	660.95	910.91	223.11	840.47	91.167	-99.418	797.57	73.906	-81.354	480.34	794.77	-174.75
808	4.04	701.29	878.84	270.8	537.49	615.42	-156.75	474.08	687.88	168.65	427.06	1631.9	-73.578	634.85	884.62	287.19	351.61	845.33	-231.27	378.59	1281.6	-248.22	382.37	611.93	189.72	326.86	1131	-254.39	568.1	1002.2	310.98	330.52	978.77	-251.72	417.53	798.2	-243.31	302.7	1131.3	-180.14	405.57	1507.6	2.1205	294.47	185.11	95.203	412.96	30.123	123.64	290.18	1023	71.039	303.52	271.63	166.96	360.34	359.54	110.64	305.31	25.611	175.09	572.41	726.42	-139.21	498.95	1140.9	309.57	343.56	496.07	182.62	444.83	1641.5	67.164	357.61	38.047	97.68	328.2	271.91	101.59	254.61	92.67	55.262	427.33	855.85	-196.43	291.9	1289.3	18.994	218.3	76.124	135.58	284.2	1015.1	-6.6911	339.14	1424.9	146.48	159.09	43.625	86.049	557.77	520.39	-146.55	569.89	1238.2	-3.305	491.32	1025.6	-122.18	670.98	216.52	-86.87	499	1295.5	260.27	458.26	1452.8	-168.91	517.27	1036.2	158.41	451.14	1116.5	246.64	682.73	105.7	-52.125	617.66	1676.4	22.057	639.87	400.21	-78.714	628.47	310.8	-153.04	565.41	520.61	-15.323	618.14	20.806	-86.964	431.32	795.66	208.4	655.06	311.36	-81.582	349.67	509.61	50.609	609.02	1672.4	-54.229	659.8	78.675	-133.03	772.74	52.766	-159.33	493.32	1459.5	155.01	409.68	701.81	201.62	510.63	703.75	-168.64	533.1	1413.3	-4.5622	668.17	911.57	221.81	852.57	94.356	-97.729	809.64	76.386	-80.262	485.17	793.43	-175.01
809	4.045	708.61	879.55	269.4	541.6	613.83	-157.27	477.93	687.1	168.6	432.46	1630.9	-74.344	642.11	884.73	285.73	355.3	844.46	-231.35	383.99	1280.6	-248.8	385.75	611.65	189.42	331.85	1130.2	-254.79	574.57	1001.7	309.96	334.84	977.99	-251.97	420.99	796.99	-243.23	307.57	1130.7	-180.57	411	1506.8	1.3577	295.34	185.14	95.102	412.96	30.093	123.66	295.54	1022.2	70.204	304.9	271.68	166.86	362.33	359.17	110.52	305.28	25.587	175.04	576.82	724.63	-139.08	504.57	1140.1	308.95	346.32	495.94	182.39	450.15	1640.7	66.409	357.62	38.026	97.748	329.63	271.73	101.49	254.92	92.975	55.233	431.05	854.69	-196.45	297.22	1288.5	18.128	218.49	76.653	135.59	289.72	1014.2	-7.4873	344.41	1424.1	145.69	159.12	44.424	86.055	562.6	519.31	-146.48	575.37	1237.3	-3.6783	497.04	1024.7	-122.51	680.12	216.93	-86.614	504.39	1294.8	259.65	463.95	1451.9	-169.6	523.13	1035.7	157.58	456.91	1115.6	245.95	693.27	106.2	-51.988	622.99	1675.7	21.365	646.19	400.22	-78.28	636.62	310.71	-152.87	569.03	519.1	-14.755	629.98	20.373	-87.62	435.6	795.09	208.03	662.75	311.58	-81.231	352.81	509.36	50.382	614.38	1671.6	-54.923	671.4	78.949	-133.15	785.04	54.489	-158.62	498.58	1458.8	154.34	413.49	701.38	201.24	515.14	702.3	-169.1	538.58	1412.4	-5.1176	675.31	912.2	220.51	863.89	97.169	-96.181	820.94	78.598	-79.239	490.06	792.1	-175.31
